<svg xmlns="http://www.w3.org/2000/svg" viewBox="0 0 32 32" role="img" aria-label="WhatsApp"><path fill="#25D366" d="M16.004 3.2c-7.04 0-12.76 5.72-12.76 12.76 0 2.248.588 4.444 1.704 6.38L3.2 28.8l6.62-1.736a12.7 12.7 0 0 0 6.184 1.58c7.04 0 12.76-5.72 12.76-12.76S23.044 3.2 16.004 3.2Z"/><path fill="#fff" d="M23.452 19.072c-.408-.204-2.416-1.192-2.792-1.328-.376-.136-.648-.204-.92.204-.272.408-1.056 1.328-1.296 1.6-.24.272-.48.306-.888.102-.408-.204-1.724-.636-3.284-2.028-1.214-1.084-2.034-2.424-2.274-2.832-.24-.408-.026-.63.18-.832.184-.182.408-.476.612-.714.204-.238.272-.408.408-.68.136-.272.068-.51-.034-.714-.102-.204-.92-2.214-1.26-3.034-.332-.798-.67-.69-.92-.704l-.784-.014c-.272 0-.714.102-1.088.51-.374.408-1.428 1.396-1.428 3.4s1.462 3.944 1.666 4.216c.204.272 2.878 4.394 6.97 6.162.974.42 1.734.672 2.326.86.978.312 1.868.268 2.572.162.784-.116 2.416-.986 2.758-1.94.34-.952.34-1.768.238-1.94-.102-.17-.374-.272-.782-.476Z"/></svg>