<svg xmlns="http://www.w3.org/2000/svg" viewBox="0 0 32 32" role="img" aria-label="WhatsApp"><path fill="currentColor" d="M16.004 3.2c-7.04 0-12.76 5.72-12.76 12.76 0 2.248.588 4.444 1.704 6.38L3.2 28.8l6.62-1.736a12.7 12.7 0 0 0 6.184 1.58c7.04 0 12.76-5.72 12.76-12.76S23.044 3.2 16.004 3.2Zm0 23.08c-1.92 0-3.8-.528-5.44-1.528l-.388-.232-3.928 1.032 1.048-3.828-.252-.396a10.28 10.28 0 0 1-1.584-5.368c0-5.816 4.732-10.548 10.548-10.548S26.556 10.144 26.556 15.96 21.824 26.28 16.004 26.28Zm5.784-7.9c-.316-.158-1.87-.922-2.16-1.028-.29-.106-.5-.158-.71.158-.21.316-.816 1.028-1 1.238-.184.21-.368.236-.684.078-.316-.158-1.334-.492-2.54-1.568-.94-.838-1.574-1.874-1.758-2.19-.184-.316-.02-.486.138-.644.142-.14.316-.368.474-.552.158-.184.21-.316.316-.526.106-.21.052-.394-.026-.552-.078-.158-.71-1.712-.974-2.344-.256-.614-.516-.53-.71-.54l-.606-.01c-.21 0-.552.078-.842.394-.29.316-1.106 1.08-1.106 2.632 0 1.552 1.132 3.054 1.29 3.264.158.21 2.228 3.4 5.398 4.766.754.326 1.342.52 1.8.666.756.24 1.444.206 1.988.126.606-.09 1.87-.764 2.134-1.502.264-.738.264-1.37.184-1.502-.078-.132-.29-.21-.606-.368Z"/></svg>